<?xml version="1.0" standalone="no"?>
<!DOCTYPE svg PUBLIC "-//W3C//DTD SVG 20010904//EN"
 "http://www.w3.org/TR/2001/REC-SVG-20010904/DTD/svg10.dtd">
<svg version="1.0" xmlns="http://www.w3.org/2000/svg"
 width="500.000000pt" height="500.000000pt" viewBox="0 0 500.000000 500.000000"
 preserveAspectRatio="xMidYMid meet">

<g transform="translate(0.000000,500.000000) scale(0.100000,-0.100000)"
fill="#000000" stroke="none">
<path d="M2440 3998 c0 -21 17 -34 105 -84 118 -67 119 -67 90 -179 -23 -87
-62 -153 -133 -222 -48 -46 -63 -67 -60 -85 3 -21 11 -15 79 52 103 103 169
244 169 361 0 37 -2 39 -92 89 -51 29 -108 61 -125 72 l-33 20 0 -24z"/>
<path d="M850 3735 c0 -208 1 -215 20 -215 19 0 20 7 20 215 0 208 -1 215 -20
215 -19 0 -20 -7 -20 -215z"/>
<path d="M1128 3710 c3 -181 4 -190 22 -190 19 0 20 8 20 190 l0 190 -22 0
-23 0 3 -190z"/>
<path d="M4034 3791 c-30 -18 -52 -41 -40 -41 3 0 20 9 38 20 43 26 88 25 122
-1 27 -21 44 -21 31 1 -10 16 -69 40 -97 40 -13 0 -37 -9 -54 -19z"/>
<path d="M1030 3660 c0 -133 1 -140 20 -140 19 0 20 7 20 140 0 133 -1 140
-20 140 -19 0 -20 -7 -20 -140z"/>
<path d="M4042 3754 c-12 -8 -22 -20 -22 -25 0 -6 10 -3 22 5 29 21 72 20 103
0 14 -9 25 -12 25 -6 0 18 -43 42 -75 42 -17 0 -41 -7 -53 -16z"/>
<path d="M670 3625 c0 -98 1 -105 20 -105 19 0 20 7 20 105 0 98 -1 105 -20
105 -19 0 -20 -7 -20 -105z"/>
<path d="M4050 3715 c-15 -18 -7 -19 21 -4 16 8 26 7 44 -5 14 -9 26 -12 30
-6 16 26 -74 40 -95 15z"/>
<path d="M940 3620 c0 -93 1 -100 20 -100 19 0 20 7 20 100 0 93 -1 100 -20
100 -19 0 -20 -7 -20 -100z"/>
<path d="M4080 3675 c0 -8 7 -15 15 -15 8 0 15 7 15 15 0 8 -7 15 -15 15 -8 0
-15 -7 -15 -15z"/>
<path d="M760 3590 c0 -63 2 -70 20 -70 18 0 20 7 20 70 0 63 -2 70 -20 70
-18 0 -20 -7 -20 -70z"/>
<path d="M1981 3606 c-9 -10 -9 -16 -1 -21 17 -10 37 12 24 25 -8 8 -15 6 -23
-4z"/>
<path d="M2895 3590 c-4 -6 -3 -16 3 -22 6 -6 12 -6 17 2 4 6 3 16 -3 22 -6 6
-12 6 -17 -2z"/>
<path d="M1619 3261 l-24 -19 -3 -534 c-2 -492 -1 -536 15 -567 10 -19 31 -44
46 -55 27 -20 44 -21 308 -24 l279 -3 0 -115 c0 -112 0 -115 -24 -124 -29 -11
-46 -38 -46 -74 l0 -26 255 0 c282 0 269 -4 241 65 -8 19 -22 35 -30 35 -14 0
-16 18 -16 120 l0 120 233 1 c300 1 338 6 380 47 l32 32 3 550 c2 540 2 550
-18 570 -20 20 -30 20 -814 20 -767 0 -795 -1 -817 -19z m1571 -486 l0 -435
-720 0 -720 0 0 435 0 435 720 0 720 0 0 -435z"/>
<path d="M2382 3060 c-46 -28 -72 -76 -72 -132 l0 -48 -35 0 -35 0 0 -132 c0
-152 12 -192 73 -245 48 -42 97 -57 173 -50 133 10 200 83 211 227 l6 82 74
-4 c46 -2 73 0 73 7 0 7 -27 9 -75 7 -71 -4 -75 -3 -75 17 0 18 6 21 48 21 37
0 54 5 68 21 14 16 26 19 52 14 26 -5 33 -3 30 7 -7 18 -58 10 -84 -13 -14
-13 -35 -19 -67 -19 -43 0 -47 2 -47 24 0 19 -6 25 -27 28 -26 3 -29 8 -34 55
-13 103 -68 153 -169 153 -37 0 -66 -6 -88 -20z m128 -68 c15 -12 24 -33 27
-65 l6 -47 -67 0 -66 0 0 42 c0 29 7 49 22 65 26 28 48 29 78 5z m9 -240 c7
-14 6 -25 -4 -39 -11 -15 -12 -29 -5 -54 6 -19 10 -35 10 -36 0 -2 -12 -3 -26
-3 -24 0 -25 2 -19 39 4 25 2 46 -6 59 -10 17 -10 23 0 36 18 21 38 20 50 -2z"/>
<path d="M2046 2853 c-11 -11 -6 -23 9 -23 8 0 15 4 15 9 0 13 -16 22 -24 14z"/>
<path d="M2100 2846 c0 -22 48 -45 90 -44 l45 1 -45 4 c-28 3 -54 12 -67 25
-13 12 -23 18 -23 14z"/>
<path d="M2084 2758 c-8 -12 11 -14 81 -8 l70 6 -73 4 c-41 3 -76 2 -78 -2z"/>
<path d="M2815 2693 c25 -26 85 -39 85 -18 0 11 -8 13 -30 8 -22 -4 -37 0 -53
13 l-22 18 20 -21z"/>
<path d="M2119 2684 c-7 -9 -25 -14 -43 -13 -17 2 -32 -1 -33 -6 -4 -17 61 -4
82 16 11 10 17 19 13 19 -3 0 -11 -7 -19 -16z"/>
<path d="M561 2853 c-56 -60 -101 -113 -101 -119 0 -13 133 -143 173 -168 15
-10 27 -22 27 -26 0 -4 -17 -19 -37 -33 -46 -33 -39 -34 22 -5 43 21 46 21 80
5 50 -24 67 -21 28 4 -18 12 -33 23 -33 25 0 3 43 46 95 96 53 50 95 97 93
104 -2 7 -47 60 -101 118 -71 76 -105 106 -122 106 -17 0 -52 -30 -124 -107z
m294 -172 c-54 -48 -166 -121 -177 -115 -18 11 -151 105 -162 116 -6 4 71 8
169 8 100 0 175 -4 170 -9z"/>
<path d="M3908 2939 c-10 -5 -18 -21 -18 -34 l0 -25 150 0 150 0 0 25 c0 14
-8 29 -19 35 -25 13 -240 13 -263 -1z m182 -29 c0 -5 -20 -10 -44 -10 -25 0
-48 5 -51 10 -4 6 13 10 44 10 28 0 51 -4 51 -10z"/>
<path d="M4343 2761 c-13 -14 -35 -21 -73 -23 -49 -3 -55 -5 -58 -27 -3 -20
-1 -23 15 -16 34 14 87 5 113 -20 15 -14 36 -25 48 -25 29 0 62 34 62 65 0 55
-71 85 -107 46z m88 -44 c-1 -12 -15 -9 -19 4 -3 6 1 10 8 8 6 -3 11 -8 11
-12z"/>
<path d="M3810 2675 c0 -8 7 -15 15 -15 8 0 15 7 15 15 0 8 -7 15 -15 15 -8 0
-15 -7 -15 -15z"/>
<path d="M3890 2528 c0 -47 8 -49 156 -46 l139 3 3 33 3 32 -150 0 c-150 0
-151 0 -151 -22z m168 -15 c-2 -10 -10 -18 -18 -18 -8 0 -16 8 -18 18 -2 12 3
17 18 17 15 0 20 -5 18 -17z"/>
<path d="M1278 2248 c-34 -12 -36 -26 -4 -37 13 -5 26 -19 29 -31 3 -12 10
-19 16 -15 7 4 11 -5 11 -25 0 -27 3 -31 23 -28 30 4 62 69 48 97 -27 50 -63
62 -123 39z"/>
<path d="M792 2218 c-16 -16 -15 -37 3 -44 9 -4 15 -19 15 -39 0 -38 26 -65
63 -65 24 0 26 3 20 32 -4 21 -3 29 5 24 16 -10 52 25 52 51 0 31 -44 49 -83
35 -22 -8 -29 -8 -34 4 -6 17 -25 18 -41 2z"/>
<path d="M4206 2165 c-6 -17 38 -88 49 -77 4 4 5 -4 3 -18 -2 -21 2 -26 23
-28 39 -5 53 21 50 86 -2 39 -111 72 -125 37z"/>
<path d="M3517 2158 c-18 -14 -57 -128 -57 -170 0 -42 68 -66 98 -36 14 14 16
94 2 103 -15 9 -12 25 4 25 8 0 17 7 20 16 4 10 13 13 26 9 15 -5 20 -2 20 14
0 44 -72 69 -113 39z"/>
<path d="M1067 2023 c-3 -5 -8 -38 -12 -75 l-7 -68 30 11 c16 6 38 19 47 29
10 11 22 17 26 14 10 -6 15 5 24 59 l6 37 -55 0 c-30 0 -57 -3 -59 -7z"/>
<path d="M4135 2009 c-5 -15 0 -29 18 -47 25 -27 25 -27 11 -97 -24 -113 -46
-124 -64 -32 -20 102 -12 97 -160 97 -71 0 -131 -3 -133 -7 -3 -5 5 -53 17
-108 26 -114 27 -113 -57 -114 -34 -1 -47 -5 -45 -13 4 -10 64 -14 246 -16
237 -2 242 -2 242 18 0 11 -7 20 -15 20 -13 0 -12 5 5 28 31 42 36 110 12 165
-17 37 -18 48 -7 57 16 14 56 15 123 5 60 -9 68 4 28 43 -29 27 -35 27 -97 1
l-50 -22 -23 22 c-28 27 -43 27 -51 0z m-58 -154 c19 -74 17 -85 -12 -85 -14
0 -28 -6 -30 -12 -4 -9 -29 -12 -89 -10 l-84 3 -16 64 c-26 103 -33 96 101 93
l117 -3 13 -50z"/>
<path d="M1114 1875 c-18 -14 -17 -14 14 -15 22 0 32 5 32 15 0 19 -21 19 -46
0z"/>
<path d="M809 1773 c-11 -12 -14 -54 -13 -173 1 -86 5 -164 10 -173 10 -18 -7
-305 -19 -324 -12 -18 -1 -31 40 -48 44 -19 53 -12 25 18 l-21 22 21 133 c11
73 23 130 26 128 8 -9 30 -264 24 -291 -4 -24 -2 -25 41 -25 54 0 69 15 32 32
l-27 12 6 191 c4 104 9 244 12 309 3 66 3 139 -1 163 l-6 43 -68 0 c-52 0 -72
-4 -82 -17z"/>
<path d="M3486 1735 c-22 -22 -30 -95 -22 -208 11 -163 5 -152 89 -149 39 1
72 4 73 5 2 2 8 50 13 108 12 121 5 216 -17 242 -20 22 -114 24 -136 2z"/>
<path d="M1267 1698 c-8 -60 13 -489 28 -564 3 -14 -4 -25 -26 -38 -39 -23
-24 -36 44 -36 l49 0 -3 33 c-3 53 1 521 5 516 2 -2 6 -48 10 -103 6 -96 38
-304 56 -359 7 -24 5 -30 -21 -49 -38 -28 -27 -37 39 -31 l52 6 -6 66 c-11
119 -33 323 -50 464 l-17 137 -77 0 -77 0 -6 -42z"/>
<path d="M4236 1663 c-27 -4 -28 -6 -22 -46 3 -23 11 -105 16 -182 14 -188 27
-326 35 -350 5 -15 -1 -24 -26 -39 -27 -16 -29 -20 -15 -28 9 -5 38 -8 64 -6
l47 3 -1 205 c-1 113 0 192 2 175 13 -92 58 -301 67 -306 5 -4 -5 -17 -22 -30
-40 -30 -28 -40 37 -32 l53 6 -5 66 c-3 36 -10 89 -15 116 -9 47 -55 388 -60
448 -1 7 -104 7 -155 0z m91 -185 c-2 -18 -4 -6 -4 27 0 33 2 48 4 33 2 -15 2
-42 0 -60z"/>
<path d="M1516 1584 c-9 -8 -16 -31 -16 -49 0 -70 -65 -65 926 -65 881 0 894
0 914 20 24 24 26 57 4 88 l-15 22 -899 0 c-804 0 -900 -2 -914 -16z"/>
<path d="M3457 1066 c-7 -17 7 -29 51 -44 42 -14 44 5 2 36 -34 26 -46 27 -53
8z"/>
<path d="M3576 1052 c-4 -3 -6 -14 -6 -24 0 -15 8 -18 44 -18 45 0 66 12 45
26 -18 10 -77 22 -83 16z"/>
</g>
</svg>
